<svg id="Capa_1" enable-background="new 0 0 512.002 512.002" height="512" viewBox="0 0 512.002 512.002" width="512" xmlns="http://www.w3.org/2000/svg"><g><g><path d="m416.971 42.26c-28.35-10.08-57.12-9.7-81.03 2.83l-.01.01-37.52 189.95c9.32 15.66 22.07 27.62 38.1 33.33 52.584 18.708 113.755-35.277 136.95-87.86 27.699-62.413 3.575-116.874-56.49-138.26z" fill="#b3f1ff"/><path d="m346.301 62.05 9.58 55.16h.01l117.57 63.31c1.54-3.47 2.94-6.98 4.2-10.52 4.16-11.71 6.46-22.87 7.09-33.4z" fill="#eefaff"/><path d="m176.651 44.51c-23.69-11.96-53.7-12.17-81.59-2.25-52.03 18.52-82.91 65.3-60.69 127.74 22.21 62.44 90.8 116.89 142.83 98.38 15.76-5.61 28.35-17.26 37.62-32.52z" fill="#a0e5a5"/><path d="m347.321 162.6 103.23 55.59c-9.81 12.36-21.15 23.33-33.28 32.08l-88.88-47.86c7.8-12 14.23-25.57 18.93-39.81z" fill="#eefaff"/><path d="m356.061 110c0 65.421-44.27 140-100 140-57.463 0-100-77.262-100-140 0-62.678 40.955-100 100-100 57.978 0 100 36.26 100 100z" fill="#ff7b79"/><path d="m294.101 117.64-18.87 18.59 4.34 26.13-23.51-12.2-23.51 12.2 4.34-26.13-18.87-18.59 26.19-3.95 11.85-23.69 11.85 23.69z" fill="#ffda8f"/><g fill="#eefaff"><circle cx="116.061" cy="190" r="20"/><circle cx="96.061" cy="110" r="20"/></g></g><g><circle cx="156.061" cy="230" r="10"/><circle cx="66.061" cy="160" r="10"/><path d="m24.949 173.352c11.448 32.185 35.297 63.698 63.796 84.299 23.902 17.278 54.107 28.814 82.895 22.668l73.018 160.759-36.918 55.376c-3.064 4.595-1.822 10.804 2.773 13.867 4.596 3.064 10.804 1.823 13.867-2.773l21.68-32.52v26.972c0 5.522 4.477 10 10 10s10-4.478 10-10v-26.973l21.68 32.52c3.072 4.608 9.285 5.829 13.867 2.773 4.595-3.063 5.837-9.272 2.773-13.867l-36.89-55.335 74.507-160.794c54.606 11.978 115.495-38.83 140.603-95.748.035-.079.104-.24.104-.241 30.275-68.522 2.193-128.506-62.384-151.497-28.782-10.233-57.483-10.184-81.75-.023-19.725-21.22-48.692-32.815-82.509-32.815-33.539 0-62.36 11.432-82.077 32.349-24.302-9.731-53.816-9.634-82.276.49-59.817 21.292-89.993 75.222-66.759 140.513zm192.697 76.14c9.215 5.2 18.719 8.474 28.415 9.81v21.698c0 5.522 4.477 10 10 10s10-4.478 10-10v-21.696c10.092-1.39 19.973-4.881 29.534-10.457 7.814 10.585 17.146 18.878 27.591 24.505l-57.125 123.282v-25.634c0-5.522-4.477-10-10-10s-10 4.478-10 10v24.802l-55.602-122.414c10.261-5.513 19.457-13.599 27.187-23.896zm122.22 9.468c-10.829-3.857-20.245-11.188-28.084-21.82 7.055-6.148 13.66-13.398 19.744-21.683l65.961 35.518c-20.54 11.179-40.596 14.042-57.621 7.985zm128.458-92.564-102.28-55.076c.004-.439.017-.882.017-1.32 0-9.596-.883-18.738-2.632-27.37l110.74 59.629c-.986 7.81-2.936 15.9-5.845 24.137zm-20.594 38.917-88.474-47.644c2.297-8.157 4.016-16.348 5.148-24.517l95.919 51.651c-3.626 7.042-7.84 13.897-12.593 20.51zm-31.381 33.103-73.97-39.831c3.882-6.895 7.353-14.143 10.374-21.702l82.141 44.234c-5.83 6.355-12.087 12.192-18.545 17.299zm-2.732-186.735c34.66 12.341 56.373 37.08 60.561 67.868l-120.31-64.782c-.912-1.794-1.877-3.552-2.89-5.276 18.676-6.382 40.495-5.684 62.639 2.19zm-157.556-31.681c53.436 0 90 32.7 90 90 0 60.836-41.008 130-90 130-50.668 0-90-71.988-90-130 0-56.245 35.416-90 90-90zm-94.686 29.06c-10.165 17.033-15.314 37.465-15.314 60.94 0 48.87 22.357 99.886 55.258 127.974-7.716 10.185-16.927 17.231-27.469 20.984-20.937 7.451-47.685 1.063-73.388-17.516-25.342-18.319-46.527-46.279-56.669-74.795-22.246-62.511 13.63-100.375 54.62-114.966 21.848-7.769 44.167-8.609 62.962-2.621z"/><path d="m226.175 139.712-3.489 21.01c-.621 3.736.923 7.503 3.987 9.729 3.063 2.226 7.123 2.53 10.484.786l18.904-9.81 18.904 9.81c3.354 1.741 7.414 1.444 10.484-.786 3.064-2.226 4.607-5.992 3.987-9.729l-3.489-21.01 15.173-14.948c2.698-2.658 3.663-6.612 2.493-10.214s-4.275-6.233-8.02-6.799l-21.059-3.175-9.529-19.05c-1.695-3.386-5.157-5.526-8.944-5.526s-7.249 2.14-8.943 5.526l-9.529 19.05-21.059 3.175c-3.745.565-6.849 3.197-8.02 6.799-1.17 3.602-.205 7.556 2.493 10.214zm19.527-16.133c3.217-.485 5.997-2.505 7.452-5.415l2.907-5.811 2.907 5.811c1.455 2.91 4.235 4.93 7.452 5.415l6.421.968-4.628 4.56c-2.318 2.284-3.38 5.553-2.847 8.763l1.064 6.405-5.763-2.99c-1.444-.749-3.025-1.124-4.606-1.124s-3.162.375-4.606 1.124l-5.763 2.99 1.064-6.405c.533-3.21-.529-6.479-2.847-8.763l-4.628-4.56z"/><path d="m96.061 140c16.542 0 30-13.458 30-30s-13.458-30-30-30-30 13.458-30 30 13.458 30 30 30zm0-40c5.514 0 10 4.486 10 10s-4.486 10-10 10-10-4.486-10-10 4.486-10 10-10z"/><path d="m86.061 190c0 16.542 13.458 30 30 30s30-13.458 30-30-13.458-30-30-30-30 13.458-30 30zm40 0c0 5.514-4.486 10-10 10s-10-4.486-10-10 4.486-10 10-10 10 4.486 10 10z"/><circle cx="256.061" cy="326" r="10"/></g></g></svg>