<svg id="Capa_1" enable-background="new 0 0 512.499 512.499" height="512" viewBox="0 0 512.499 512.499" width="512" xmlns="http://www.w3.org/2000/svg"><g><g><g><path d="m256.25 512.25c-4.142 0-7.5-3.358-7.5-7.5 0-16.603-4.216-24.402-9.098-33.434-5.11-9.454-10.902-20.169-10.902-40.566s5.792-31.112 10.902-40.566c4.882-9.031 9.098-16.831 9.098-33.434 0-4.142 3.358-7.5 7.5-7.5s7.5 3.358 7.5 7.5c0 20.397-5.792 31.112-10.902 40.566-4.882 9.031-9.098 16.831-9.098 33.434s4.216 24.402 9.098 33.434c5.11 9.454 10.902 20.169 10.902 40.566 0 4.142-3.358 7.5-7.5 7.5z" fill="#407194"/></g><g><path d="m387.195 512.25c-4.142 0-7.5-3.358-7.5-7.5 0-14.276-3.633-20.998-7.84-28.781-4.521-8.363-9.645-17.843-9.645-35.914s5.124-27.55 9.645-35.913c4.207-7.783 7.84-14.504 7.84-28.781 0-4.142 3.358-7.5 7.5-7.5s7.5 3.358 7.5 7.5c0 18.071-5.124 27.55-9.645 35.914-4.207 7.783-7.84 14.504-7.84 28.78s3.633 20.998 7.84 28.781c4.521 8.363 9.645 17.843 9.645 35.914 0 4.142-3.358 7.5-7.5 7.5z" fill="#407194"/></g><g><path d="m125.304 512.25c-4.142 0-7.5-3.358-7.5-7.5 0-18.071 5.124-27.55 9.645-35.914 4.207-7.783 7.84-14.504 7.84-28.781 0-14.276-3.633-20.998-7.84-28.78-4.521-8.363-9.645-17.843-9.645-35.914 0-4.142 3.358-7.5 7.5-7.5s7.5 3.358 7.5 7.5c0 14.276 3.633 20.998 7.84 28.781 4.521 8.363 9.645 17.842 9.645 35.913s-5.124 27.55-9.645 35.914c-4.207 7.783-7.84 14.504-7.84 28.781 0 4.142-3.358 7.5-7.5 7.5z" fill="#407194"/></g><path d="m112.25 322.75-12.901 39.508c-2.111 6.464 2.706 13.104 9.506 13.104h32.871c6.808 0 11.625-6.654 9.5-13.122l-12.977-39.49z" fill="#b2e5fb"/><path d="m123.859 375.359h-15c-6.8 0-11.62-6.64-9.51-13.1l12.9-39.51h15l-12.9 39.51c-2.109 6.46 2.711 13.1 9.51 13.1z" fill="#91dafa"/><path d="m400.25 324.75 12.694 37.397c2.201 6.485-2.621 13.214-9.469 13.214h-32.53c-6.857 0-11.68-6.744-9.463-13.233l12.769-37.379h25.999z" fill="#dc4955"/><path d="m385.94 375.359h-15c-6.85 0-11.68-6.74-9.46-13.23l12.77-37.38h15l-12.77 37.38c-2.22 6.491 2.61 13.23 9.46 13.23z" fill="#d82f3c"/><path d="m273.25 303.75 13.221 39.851c2.147 6.473-2.672 13.149-9.491 13.149h-41.46c-6.82 0-11.639-6.676-9.491-13.149l13.221-39.851z" fill="#f8e837"/><path d="m250.52 356.75h-15c-6.82 0-11.64-6.68-9.49-13.15l13.22-39.85h15l-13.22 39.85c-2.15 6.47 2.67 13.15 9.49 13.15z" fill="#f3d332"/><path d="m369.712 71.551c-56.717 8.499-100.212 57.833-100.212 125.141 0 74.119 52.743 142.388 117.804 142.388 30.03 0 57.435-14.544 78.242-37.494l-.06-.054c24.243-26.77 39.513-64.958 39.513-104.84 0-74.119-52.743-126.442-117.804-126.442-5.942 0-11.78.436-17.486 1.286z" fill="#dc4955"/><path d="m465.49 301.529.06.06c-20.81 22.95-48.22 37.49-78.25 37.49-65.06 0-117.8-68.27-117.8-142.39 0-46.7 20.94-84.75 52.71-106.5-14.28 20.71-22.71 46.86-22.71 76.5 0 74.12 52.74 142.39 117.8 142.39 20.9 0 40.53-7.04 57.55-19.06-2.941 4.03-6.07 7.88-9.36 11.51z" fill="#d82f3c"/><path d="m411 152.38c0 45.48-16.01 91.33-43.92 125.81-12.69 15.69-27.13 28.36-42.75 37.75-32.95-26.2-54.83-71.51-54.83-119.25 0-67.31 43.5-116.64 100.21-125.14v-.01c5.71-.85 11.54-1.29 17.49-1.29 1.47 0 2.93.03 4.38.09 12.68 24.36 19.42 52.41 19.42 82.04z" fill="#dc4955"/><path d="m107.712 71.551c-56.717 8.499-100.212 57.833-100.212 125.141 0 74.119 52.743 142.388 117.804 142.388 30.03 0 57.435-14.544 78.242-37.494l-.06-.054c24.243-26.77 39.513-64.958 39.513-104.84 0-74.119-52.743-126.442-117.804-126.442-5.942 0-11.78.436-17.486 1.286z" fill="#b2e5fb"/><path d="m203.49 301.529.06.06c-20.81 22.95-48.22 37.49-78.25 37.49-65.06 0-117.8-68.27-117.8-142.39 0-46.7 20.94-84.75 52.71-106.5-14.28 20.71-22.71 46.86-22.71 76.5 0 74.12 52.74 142.39 117.8 142.39 20.9 0 40.53-7.04 57.55-19.06-2.941 4.03-6.07 7.88-9.36 11.51z" fill="#91dafa"/><path d="m203.49 301.529.06.06c-4.77 5.27-9.89 10.09-15.32 14.39-15.64-9.4-30.1-22.08-42.81-37.79-27.91-34.48-43.92-80.33-43.92-125.81 0-29.63 6.74-57.69 19.43-82.05 1.42-.05 2.84-.08 4.27-.08 65.06 0 117.8 52.32 117.8 126.44 0 39.881-15.271 78.071-39.51 104.84z" fill="#b2e5fb"/><path d="m243 196.69c0 39.88-15.27 78.07-39.51 104.84l.06.06c-4.77 5.27-9.89 10.09-15.32 14.39-15.64-9.4-30.1-22.08-42.81-37.79-27.91-34.48-43.92-80.33-43.92-125.81 0-29.63 6.74-57.69 19.43-82.05 1.42-.05 2.84-.08 4.27-.08 65.06 0 117.8 52.32 117.8 126.44z" fill="#91dafa"/><path d="m411 152.38c0 45.48-16.01 91.33-43.92 125.81-12.69 15.69-27.13 28.36-42.75 37.75-32.95-26.2-54.83-71.51-54.83-119.25 0-67.31 43.5-116.64 100.21-125.14v-.01c5.71-.85 11.54-1.29 17.49-1.29 1.47 0 2.93.03 4.38.09 12.68 24.36 19.42 52.41 19.42 82.04z" fill="#d82f3c"/><path d="m121.5 152.38c0-84.781 60.329-144.63 134.75-144.63s134.75 59.849 134.75 144.63-60.33 162.87-134.75 162.87-134.75-78.089-134.75-162.87z" fill="#f8e837"/><path d="m355.63 260.32c-24.63 33.1-60.03 54.93-99.38 54.93-74.42 0-134.75-78.09-134.75-162.87 0-52.77 23.37-95.87 58.96-120.9-16.93 23.91-26.96 54.33-26.96 88.9 0 84.78 60.33 162.87 134.75 162.87 24.549 0 47.56-8.49 67.38-22.93z" fill="#f3d332"/></g><g><path d="m475.921 100.499c-23.224-24.343-54.734-37.75-88.727-37.75-4.704 0-9.417.263-14.065.781-4.766-7.297-10.164-14.138-16.171-20.435-26.359-27.629-62.125-42.845-100.708-42.845-25.721 0-50.708 6.902-72.261 19.961-3.542 2.146-4.674 6.758-2.528 10.301 2.147 3.542 6.757 4.674 10.301 2.528 19.208-11.639 41.508-17.79 64.488-17.79 72.544 0 127.25 58.953 127.25 137.13 0 2.249-.045 4.531-.134 6.784-.163 4.139 3.06 7.626 7.199 7.79.101.004.201.006.301.006 4.005 0 7.33-3.167 7.489-7.205.097-2.449.146-4.93.146-7.375 0-26.868-5.933-52.293-17.093-74.463 1.927-.099 3.857-.167 5.789-.167 62.884 0 110.304 51.134 110.304 118.942 0 34.136-11.967 68.496-32.833 94.27-21.206 26.193-48.719 40.619-77.471 40.619-23.661 0-46.855-10.006-66.159-28.355 7.884-5.054 15.465-11.061 22.668-17.993 23.924-23.023 41.583-54.763 49.722-89.372.948-4.032-1.552-8.07-5.583-9.018-4.032-.947-8.07 1.552-9.018 5.583-15.72 66.823-67.269 115.324-122.577 115.324-35.562-.09-66.601-18.661-89.453-46.861-24.021-29.67-37.797-69.22-37.797-108.509 0-38.267 13.126-73.239 36.96-98.474 2.844-3.011 2.708-7.758-.303-10.603-3.012-2.844-7.758-2.709-10.603.303-5.813 6.155-11.052 12.821-15.69 19.923-4.646-.517-9.358-.78-14.061-.78-33.992 0-65.503 13.406-88.727 37.75-23.586 24.724-36.576 58.886-36.576 96.193 0 36.747 12.736 73.984 34.943 102.165 2.577 3.27 7.304 3.799 10.533 1.249 3.253-2.563 3.813-7.279 1.249-10.533-20.162-25.585-31.725-59.439-31.725-92.881 0-67.808 47.42-118.942 110.304-118.942 1.933 0 3.865.068 5.794.168-11.16 22.175-17.098 47.608-17.098 74.462 0 42.665 14.994 85.654 41.138 117.947 10.889 13.45 23.134 24.487 36.31 32.913-19.302 18.34-42.489 28.341-66.144 28.341-19.104 0-38.1-6.545-54.935-18.928-3.337-2.455-8.032-1.739-10.485 1.598-2.455 3.337-1.739 8.031 1.598 10.485 11.429 8.406 23.775 14.461 36.545 18.039l-10.072 30.215c-1.698 4.666 2.153 10.008 7.115 9.872h23.068c1.19 13.347 5.463 21.295 9.311 28.414 4.207 7.783 7.84 14.504 7.84 28.78s-3.633 20.998-7.84 28.781c-4.521 8.363-9.645 17.843-9.645 35.914 0 4.142 3.358 7.5 7.5 7.5s7.5-3.358 7.5-7.5c0-14.276 3.633-20.998 7.84-28.781 4.521-8.363 9.645-17.843 9.645-35.914s-5.124-27.55-9.645-35.913c-3.392-6.276-6.409-11.867-7.451-21.281h22.345c4.963.136 8.813-5.206 7.115-9.872l-10.066-30.199c19.045-5.335 37.028-16.204 52.496-31.919 6.925 3.338 14.053 5.983 21.327 7.929l-11.859 35.577c-.762 2.287-.379 4.801 1.031 6.757s3.674 3.115 6.084 3.115h26.747c-1.078 11.681-4.682 18.387-8.762 25.934-5.11 9.454-10.902 20.169-10.902 40.566s5.792 31.112 10.902 40.566c4.882 9.031 9.098 16.831 9.098 33.434 0 4.142 3.358 7.5 7.5 7.5s7.5-3.358 7.5-7.5c0-20.397-5.792-31.112-10.902-40.566-4.882-9.031-9.098-16.831-9.098-33.434s4.216-24.402 9.098-33.434c4.444-8.221 9.398-17.402 10.616-33.066h27.369c4.963.136 8.813-5.206 7.115-9.872l-11.855-35.564c7.262-1.944 14.382-4.6 21.314-7.951 15.47 15.721 33.456 26.593 52.504 31.928l-10.066 30.199c-1.698 4.666 2.153 10.008 7.115 9.872h22.345c-1.042 9.413-4.058 15.005-7.451 21.281-4.521 8.363-9.645 17.842-9.645 35.913s5.124 27.55 9.645 35.914c4.207 7.783 7.84 14.504 7.84 28.781 0 4.142 3.358 7.5 7.5 7.5s7.5-3.358 7.5-7.5c0-18.071-5.124-27.55-9.645-35.914-4.207-7.783-7.84-14.504-7.84-28.781 0-14.276 3.633-20.998 7.84-28.78 3.848-7.119 8.121-15.067 9.311-28.414h23.068c4.963.136 8.813-5.206 7.115-9.872l-10.05-30.15c23.079-6.414 44.422-20.937 61.83-42.44 22.99-28.396 36.175-66.197 36.175-103.708.002-37.307-12.988-71.469-36.576-96.193zm-330.788 267.362h-39.657l7.356-22.068c4.138.522 8.301.787 12.473.787 4.179 0 8.34-.273 12.471-.793zm135.294-18.611h-48.355l9.165-27.495c4.96.654 9.968.995 15.013.995 5.047 0 10.057-.332 15.016-.984zm126.596 18.611h-39.657l7.358-22.074c4.131.52 8.292.793 12.471.793 4.19 0 8.353-.26 12.478-.771z"/></g></g></svg>