<svg width="313" height="303" viewBox="0 0 313 303" fill="none" xmlns="http://www.w3.org/2000/svg">
<g opacity="0.8" clip-path="url(#clip0)">
<path d="M152.352 113.287L160.141 161.45L116.71 139.221L152.352 113.287Z" fill="#FC8801"/>
<path d="M152.352 113.287L160.141 161.45L134.531 126.254L152.352 113.287Z" fill="#FC8801"/>
<path d="M185.758 67.3844L209.478 110.12L161.22 104.062L185.758 67.3844Z" fill="#95E9D2"/>
<path d="M185.758 67.3843L209.478 110.12L173.489 85.7231L185.758 67.3843Z" fill="#8CD9C3"/>
<path d="M201.392 12.6489L238.182 44.8031L190.917 55.6454L201.392 12.6489Z" fill="#DBE77F"/>
<path d="M201.392 12.6489L238.182 44.8031L196.155 34.1469L201.392 12.6489Z" fill="#CED977"/>
<path d="M49.9988 158.18L25.1404 199.816L5.86527 154.917L49.9988 158.18Z" fill="#FC9FD8"/>
<path d="M49.9988 158.18L25.1404 199.815L27.9327 156.548L49.9988 158.18Z" fill="#EC96CB"/>
<path d="M105.204 144.82L96.1206 192.601L62.7559 156.883L105.204 144.82Z" fill="#F6C958"/>
<path d="M105.204 144.82L96.1206 192.601L83.98 150.851L105.204 144.82Z" fill="#E5BC53"/>
<path d="M136.79 129.358C115.509 144.842 91.603 154.755 65.7343 158.823C41.0661 162.702 15.3149 160.875 -8.73525 153.54L-7.10891 148.027C16.114 155.11 40.9779 156.874 64.7946 153.129C89.7637 149.203 112.842 139.633 133.388 124.683C153.935 109.733 170.141 90.7185 181.56 68.1688C192.451 46.6596 198.423 22.4591 198.829 -1.81642L204.575 -1.66755C204.154 23.473 197.969 48.5367 186.689 70.8156C174.859 94.1777 158.071 113.874 136.79 129.358Z" fill="#521B03"/>
<path d="M136.79 129.357L133.388 124.682C153.934 109.732 170.141 90.718 181.56 68.1683C192.451 46.6591 198.422 22.4586 198.829 -1.81694L204.575 -1.66807C204.154 23.4725 197.969 48.5362 186.689 70.8151C174.858 94.1776 158.07 113.873 136.79 129.357Z" fill="#521B03"/>
</g>
<defs>
<clipPath id="clip0">
<rect width="263.8" height="266.32" fill="white" transform="translate(-57 87.2076) rotate(-36.0402)"/>
</clipPath>
</defs>
</svg>
